<?xml version="1.0" encoding="UTF-8"?>
<svg version="1.1" xmlns="http://www.w3.org/2000/svg" width="1080" height="1080">
<path d="M0 0 C1.22525391 -0.01224609 2.45050781 -0.02449219 3.71289062 -0.03710938 C17.91562046 -0.0595702 31.18816608 2.41309647 44.8125 6.1875 C46.30330078 6.59935547 46.30330078 6.59935547 47.82421875 7.01953125 C66.46248467 12.71239072 83.87839125 22.76271132 98.8125 35.1875 C99.57747803 35.81930176 99.57747803 35.81930176 100.35791016 36.46386719 C107.03944181 42.00258134 113.51849136 47.70491157 119.6875 53.8125 C120.20546143 54.32127686 120.72342285 54.83005371 121.25708008 55.35424805 C124.8125 58.94017612 124.8125 58.94017612 124.8125 61.1875 C126.1325 61.8475 127.4525 62.5075 128.8125 63.1875 C128.8125 63.8475 128.8125 64.5075 128.8125 65.1875 C129.4725 65.1875 130.1325 65.1875 130.8125 65.1875 C130.8125 65.8475 130.8125 66.5075 130.8125 67.1875 C131.4725 67.1875 132.1325 67.1875 132.8125 67.1875 C134.9375 69.0625 134.9375 69.0625 136.8125 71.1875 C136.8125 71.8475 136.8125 72.5075 136.8125 73.1875 C137.4725 73.1875 138.1325 73.1875 138.8125 73.1875 C138.8125 73.8475 138.8125 74.5075 138.8125 75.1875 C139.740625 75.55875 139.740625 75.55875 140.6875 75.9375 C143.16318687 77.39378639 143.76375002 78.56562506 144.8125 81.1875 C145.4725 81.1875 146.1325 81.1875 146.8125 81.1875 C146.8125 81.8475 146.8125 82.5075 146.8125 83.1875 C148.1325 83.8475 149.4525 84.5075 150.8125 85.1875 C150.8125 85.8475 150.8125 86.5075 150.8125 87.1875 C152.1325 87.8475 153.4525 88.5075 154.8125 89.1875 C154.8125 89.8475 154.8125 90.5075 154.8125 91.1875 C155.4725 91.1875 156.1325 91.1875 156.8125 91.1875 C156.8125 91.8475 156.8125 92.5075 156.8125 93.1875 C157.38484375 93.435 157.9571875 93.6825 158.546875 93.9375 C161.16260611 95.38066199 162.96023456 97.06966222 165.0625 99.1875 C166.12210938 100.239375 166.12210938 100.239375 167.203125 101.3125 C168.8125 103.1875 168.8125 103.1875 168.8125 105.1875 C169.4725 105.1875 170.1325 105.1875 170.8125 105.1875 C170.8125 105.8475 170.8125 106.5075 170.8125 107.1875 C171.34875 107.39375 171.885 107.6 172.4375 107.8125 C175.73228009 109.72000426 178.40613628 112.23569384 180.8125 115.1875 C180.8125 115.8475 180.8125 116.5075 180.8125 117.1875 C181.69228516 117.55875 181.69228516 117.55875 182.58984375 117.9375 C185.13936375 119.37132496 186.52367065 120.93442804 188.375 123.1875 C190.48606316 125.74522463 192.01220251 127.320635 194.8125 129.1875 C194.8125 129.8475 194.8125 130.5075 194.8125 131.1875 C195.4725 131.1875 196.1325 131.1875 196.8125 131.1875 C196.8125 131.8475 196.8125 132.5075 196.8125 133.1875 C197.4725 133.1875 198.1325 133.1875 198.8125 133.1875 C200.43359375 134.8671875 200.43359375 134.8671875 202.25 137.0625 C204.39650884 139.64943722 205.98026562 141.29934374 208.8125 143.1875 C208.8125 143.8475 208.8125 144.5075 208.8125 145.1875 C209.38613281 145.42210937 209.95976563 145.65671875 210.55078125 145.8984375 C213.33403911 147.48475027 214.92696831 149.37319496 217 151.8125 C220.65221428 155.98645918 224.48236073 159.62985401 228.6796875 163.2421875 C231.46264477 165.78048919 233.83799422 168.58005739 236.265625 171.453125 C237.86521408 173.34375549 237.86521408 173.34375549 240.3125 175.1875 C242.61174126 177.02689301 244.29057746 178.82834679 246.1875 181.0625 C248.4219234 183.68383654 250.65041928 186.00292255 253.3125 188.1875 C256.6060784 190.90029113 259.2939969 193.93105005 262.05859375 197.171875 C265.80066498 201.47233993 269.8048177 205.43133252 274.25 209 C275.095625 209.721875 275.94125 210.44375 276.8125 211.1875 C276.8125 211.8475 276.8125 212.5075 276.8125 213.1875 C277.4725 213.1875 278.1325 213.1875 278.8125 213.1875 C280.36328125 214.796875 280.36328125 214.796875 282.125 216.9375 C284.80012235 220.10511349 287.55175686 222.61842965 290.8125 225.1875 C290.8125 225.8475 290.8125 226.5075 290.8125 227.1875 C291.4725 227.1875 292.1325 227.1875 292.8125 227.1875 C292.8125 227.8475 292.8125 228.5075 292.8125 229.1875 C293.4725 229.1875 294.1325 229.1875 294.8125 229.1875 C296.29296875 230.7265625 296.29296875 230.7265625 298 232.8125 C300.2960869 235.52216777 302.56267804 237.94046716 305.3125 240.1875 C307.71759069 242.16352336 309.74904308 244.1942144 311.7421875 246.58203125 C316.98830856 252.65436777 322.74508801 258.22616077 328.4375 263.875 C329.56794381 265.00041457 330.69815372 266.12606412 331.828125 267.25195312 C333.90432238 269.32005747 335.9818659 271.38678792 338.06103516 273.4519043 C340.64970146 276.02564041 343.2324735 278.6051065 345.8125 281.1875 C346.48861328 281.86361328 347.16472656 282.53972656 347.86132812 283.23632812 C352.84505208 288.22005208 357.82877604 293.20377604 362.8125 298.1875 C363.57216064 298.94643555 364.33182129 299.70537109 365.11450195 300.48730469 C367.76462506 303.13958607 370.40988365 305.79662907 373.05412292 308.45477295 C375.80909165 311.22312 378.56671309 313.98881822 381.32446289 316.75439453 C382.78107816 318.21607714 384.23680027 319.67865032 385.69165039 321.14208984 C387.79600762 323.25852339 389.90353123 325.37175768 392.01171875 327.484375 C392.98983772 328.4702359 392.98983772 328.4702359 393.98771667 329.47601318 C394.59207047 330.0804425 395.19642426 330.68487183 395.8190918 331.30761719 C396.35028122 331.84102722 396.88147064 332.37443726 397.42875671 332.92401123 C398.80837974 334.29912779 398.80837974 334.29912779 400.8125 335.1875 C400.8125 335.8475 400.8125 336.5075 400.8125 337.1875 C401.4725 337.1875 402.1325 337.1875 402.8125 337.1875 C404.26371765 338.65748596 404.26371765 338.65748596 405.94799805 340.68969727 C409.65826893 345.05028785 413.59157059 349.11145808 417.64453125 353.15234375 C418.36235275 353.87112198 419.08017426 354.58990021 419.81974792 355.33045959 C421.32188252 356.8332693 422.82525897 358.33483866 424.32983398 359.83520508 C426.63968196 362.1396476 428.94408091 364.44944389 431.24804688 366.75976562 C432.71322072 368.2242795 434.17870429 369.68848358 435.64453125 371.15234375 C436.33408401 371.84392075 437.02363678 372.53549774 437.73408508 373.24803162 C438.37202499 373.88281937 439.0099649 374.51760712 439.66723633 375.17163086 C440.50826653 376.01146767 440.50826653 376.01146767 441.36628723 376.86827087 C442.79602317 378.29275287 442.79602317 378.29275287 444.8125 379.1875 C444.8125 379.8475 444.8125 380.5075 444.8125 381.1875 C445.4725 381.1875 446.1325 381.1875 446.8125 381.1875 C448.25300598 382.6529541 448.25300598 382.6529541 449.92895508 384.68164062 C453.71420806 389.13029727 457.76976338 393.20550474 461.94921875 397.28125 C463.51282854 398.82245139 465.07596422 400.3641339 466.63867188 401.90625 C469.0580109 404.28878836 471.48015694 406.66814523 473.91088867 409.0390625 C498.30234866 432.86038425 515.76166799 458.76969122 523.8125 492.1875 C524.08151123 493.26209473 524.08151123 493.26209473 524.35595703 494.35839844 C529.15351719 514.26327068 529.23867041 539.5129617 523.8125 559.1875 C523.54904785 560.16380371 523.2855957 561.14010742 523.01416016 562.14599609 C519.22924615 575.8927217 514.85890714 588.77783561 507.8125 601.1875 C507.23757813 602.24710938 506.66265625 603.30671875 506.0703125 604.3984375 C498.49176233 617.9839491 488.88805859 628.40004574 477.82421875 639.18359375 C474.91087504 642.04026531 472.31827128 644.96263321 469.8125 648.1875 C468.16475555 649.87287646 466.49674871 651.53860284 464.8125 653.1875 C463.86892211 654.15022008 462.92756992 655.11512589 461.98828125 656.08203125 C461.0338791 657.05471196 460.07945188 658.02736808 459.125 659 C458.63966797 659.50208984 458.15433594 660.00417969 457.65429688 660.52148438 C456.41125394 661.78167273 455.11550108 662.98941044 453.8125 664.1875 C453.1525 664.1875 452.4925 664.1875 451.8125 664.1875 C451.54155518 664.7844165 451.27061035 665.38133301 450.99145508 665.99633789 C449.82813082 668.15844914 448.69323546 669.53843986 446.94921875 671.24609375 C446.39169922 671.79716797 445.83417969 672.34824219 445.25976562 672.91601562 C444.67904297 673.47998047 444.09832031 674.04394531 443.5 674.625 C442.93087891 675.18509766 442.36175781 675.74519531 441.77539062 676.32226562 C440.69983055 677.38053771 439.62221079 678.4367241 438.54174805 679.48999023 C436.28315469 681.70712981 434.04863189 683.94770799 431.8125 686.1875 C430.8236615 687.17652607 429.83472484 688.16545401 428.84570312 689.15429688 C428.32165894 689.67834106 427.79761475 690.20238525 427.25769043 690.74230957 C358.8125 759.1875 358.8125 759.1875 356.08203125 761.8828125 C353.79017703 764.11373572 353.79017703 764.11373572 352 766.5625 C350.20046302 768.72194437 348.56053707 770.32650363 346.4375 772.125 C341.51255562 776.30374068 337.04873019 780.92645702 332.56103516 785.56420898 C331.97628418 786.16048096 331.3915332 786.75675293 330.7890625 787.37109375 C330.26393066 787.91306396 329.73879883 788.45503418 329.19775391 789.01342773 C327.8125 790.1875 327.8125 790.1875 325.8125 790.1875 C325.4825 791.1775 325.1525 792.1675 324.8125 793.1875 C323.19190373 794.89899738 321.51716534 796.5597188 319.8125 798.1875 C318.95462891 799.04537109 318.09675781 799.90324219 317.21289062 800.78710938 C296.8125 821.1875 296.8125 821.1875 294.36499023 823.6328125 C292.00078826 825.99904966 289.64123954 828.36979771 287.28334045 830.74230957 C284.93384894 833.10530104 282.58159237 835.46553247 280.22924805 837.82568359 C278.99397389 839.06599968 277.75959695 840.30720998 276.52612305 841.54931641 C274.72944735 843.35819811 272.92949311 845.16376249 271.12890625 846.96875 C270.31299767 847.79240051 270.31299767 847.79240051 269.48060608 848.63269043 C266.9428784 851.17078393 264.3818135 853.59058473 261.6027832 855.86401367 C259.39091788 857.7058478 257.6480224 859.36923967 255.8515625 861.58203125 C250.03806758 868.3910752 243.53439052 874.56955664 237.1875 880.875 C235.86434907 882.19312426 234.54143059 883.5114819 233.21875 884.83007812 C230.79098318 887.24973573 228.36189252 889.6680463 225.93115234 892.0847168 C223.21995895 894.78068442 220.5147629 897.48257769 217.8125 900.1875 C207.8125 910.1875 197.8125 920.1875 187.8125 930.1875 C186.925625 931.115625 186.03875 932.04375 185.125 933 C182.8125 935.1875 182.8125 935.1875 180.8125 935.1875 C180.43544922 936.05568359 180.43544922 936.05568359 180.05078125 936.94140625 C178.65657086 939.47033677 177.07459642 941.1218046 175 943.125 C174.00033203 944.09759766 174.00033203 944.09759766 172.98046875 945.08984375 C172.26503906 945.78207031 171.54960938 946.47429688 170.8125 947.1875 C169.1442601 948.85259195 167.47779624 950.51946403 165.8125 952.1875 C153.14583333 964.85416667 140.47916667 977.52083333 127.8125 990.1875 C127.14347656 990.868125 126.47445312 991.54875 125.78515625 992.25 C121.520505 996.56568127 117.20134046 1000.69679961 112.5390625 1004.58203125 C110.71176248 1006.17862696 110.71176248 1006.17862696 109.2109375 1008.38671875 C108.74945312 1008.98097656 108.28796875 1009.57523438 107.8125 1010.1875 C107.1525 1010.1875 106.4925 1010.1875 105.8125 1010.1875 C105.4825 1011.1775 105.1525 1012.1675 104.8125 1013.1875 C103.45703125 1014.44140625 103.45703125 1014.44140625 101.625 1015.75 C100.89667969 1016.27207031 100.16835938 1016.79414062 99.41796875 1017.33203125 C98.55816406 1017.94433594 97.69835937 1018.55664062 96.8125 1019.1875 C95.81863281 1019.93386719 94.82476563 1020.68023438 93.80078125 1021.44921875 C66.65112598 1041.68225304 36.55760196 1051.56554441 2.8125 1053.1875 C1.70132813 1053.25839844 0.59015625 1053.32929687 -0.5546875 1053.40234375 C-35.36596738 1054.6350378 -69.12570248 1039.6223591 -96.1875 1018.9375 C-96.72745605 1018.52532227 -97.26741211 1018.11314453 -97.82373047 1017.68847656 C-100.82561002 1015.35840575 -103.55594274 1012.92516844 -106.1875 1010.1875 C-107.85237782 1008.51904641 -109.51934031 1006.8526723 -111.1875 1005.1875 C-119.1875 997.1875 -127.1875 989.1875 -135.1875 981.1875 C-136.502948 979.87313965 -136.502948 979.87313965 -137.8449707 978.53222656 C-139.6456515 976.72985675 -141.44127877 974.923117 -143.23046875 973.109375 C-144.27862308 972.05206077 -145.32680038 970.99476933 -146.375 969.9375 C-147.17454102 969.12539062 -147.17454102 969.12539062 -147.99023438 968.296875 C-150.81257537 965.37992899 -150.81257537 965.37992899 -154.1875 963.1875 C-154.1875 962.5275 -154.1875 961.8675 -154.1875 961.1875 C-154.8475 961.1875 -155.5075 961.1875 -156.1875 961.1875 C-156.1875 960.5275 -156.1875 959.8675 -156.1875 959.1875 C-156.77772949 958.928479 -157.36795898 958.66945801 -157.97607422 958.40258789 C-160.3519678 957.09713168 -161.75822413 955.75069341 -163.5703125 953.74609375 C-164.48490234 952.74739258 -164.48490234 952.74739258 -165.41796875 951.72851562 C-166.04316406 951.03435547 -166.66835938 950.34019531 -167.3125 949.625 C-168.56255153 948.24637902 -169.8150408 946.86996331 -171.0703125 945.49609375 C-171.62090332 944.88564209 -172.17149414 944.27519043 -172.73876953 943.64624023 C-174.14363819 942.07630925 -174.14363819 942.07630925 -176.1875 941.1875 C-176.1875 940.5275 -176.1875 939.8675 -176.1875 939.1875 C-176.75855469 938.95546875 -177.32960938 938.7234375 -177.91796875 938.484375 C-180.74481058 936.86903681 -182.38919812 934.91197467 -184.5 932.4375 C-187.63906484 928.85515179 -190.76792586 925.61175506 -194.484375 922.63671875 C-198.49267971 919.2259824 -202.00958978 915.32176652 -205.53881836 911.4296875 C-210.18270334 906.31032703 -214.82395679 901.56590262 -220.1875 897.1875 C-225.02960526 892.66118421 -225.02960526 892.66118421 -226.1875 889.1875 C-226.8475 889.1875 -227.5075 889.1875 -228.1875 889.1875 C-228.1875 888.5275 -228.1875 887.8675 -228.1875 887.1875 C-228.8475 887.1875 -229.5075 887.1875 -230.1875 887.1875 C-231.33103517 886.11326999 -232.46385494 885.02583879 -233.546875 883.890625 C-234.84483753 882.54321627 -236.17483356 881.22667204 -237.515625 879.921875 C-238.74539063 878.72304687 -238.74539063 878.72304687 -240 877.5 C-240.79019531 876.73300781 -241.58039063 875.96601562 -242.39453125 875.17578125 C-244.1875 873.1875 -244.1875 873.1875 -244.1875 871.1875 C-244.8475 871.1875 -245.5075 871.1875 -246.1875 871.1875 C-247.703125 869.61328125 -247.703125 869.61328125 -249.4375 867.5 C-252.463462 863.93413606 -255.55115334 861.11238753 -259.1875 858.1875 C-263.94038765 853.58314008 -268.38039993 848.68852062 -272.83984375 843.80273438 C-276.26327495 840.09715225 -279.7923521 836.73456202 -283.66503906 833.50317383 C-285.52156018 831.8988133 -287.07740715 830.15132836 -288.625 828.25 C-290.98448357 825.46823749 -293.40266289 823.04307513 -296.1875 820.6875 C-299.62905834 817.77182775 -302.55837675 814.63722062 -305.44921875 811.1796875 C-309.17456977 806.91018409 -313.33624899 803.10399666 -317.50439453 799.27709961 C-324.12433157 793.19140604 -330.27220202 786.96273117 -336.1875 780.1875 C-337.8334651 778.50038577 -339.49987149 776.8329378 -341.1875 775.1875 C-342.68887931 773.68888058 -344.18873304 772.18873203 -345.6875 770.6875 C-346.4196875 769.9553125 -347.151875 769.223125 -347.90625 768.46875 C-353.61458333 762.76041667 -359.32291667 757.05208333 -365.03125 751.34375 C-365.56540527 750.81031982 -366.09956055 750.27688965 -366.64990234 749.72729492 C-368.0660994 748.30907408 -369.47481553 746.8833934 -370.8828125 745.45703125 C-372.72168328 743.64621104 -374.55853791 741.99283281 -376.5625 740.375 C-379.93208811 737.54015087 -382.7051339 734.37234162 -385.54296875 731.015625 C-387.54769953 728.78708817 -389.83812475 727.03852293 -392.1875 725.1875 C-392.1875 724.5275 -392.1875 723.8675 -392.1875 723.1875 C-392.78433594 722.92839844 -393.38117188 722.66929687 -393.99609375 722.40234375 C-396.3666227 721.08820025 -397.548798 719.84278302 -399.25 717.75 C-403.90691664 712.23814186 -409.0556713 707.25120708 -414.1875 702.1875 C-415.45013672 700.90939453 -415.45013672 700.90939453 -416.73828125 699.60546875 C-419.00622456 697.36646251 -421.33762503 695.26843562 -423.75 693.1875 C-426.93521151 690.38135498 -429.62035712 687.57979594 -432.1875 684.1875 C-433.84149294 682.50825526 -435.50993648 680.8431981 -437.1875 679.1875 C-444.1875 672.1875 -451.1875 665.1875 -458.1875 658.1875 C-459.05004395 657.32568115 -459.91258789 656.4638623 -460.80126953 655.57592773 C-462.63084282 653.74466975 -464.4552902 651.90897273 -466.2734375 650.06640625 C-472.85991311 643.29830281 -472.85991311 643.29830281 -479.9375 637.0625 C-484.72932617 633.08304731 -488.39803383 628.0944529 -492.1875 623.1875 C-493.34572266 621.72957031 -493.34572266 621.72957031 -494.52734375 620.2421875 C-511.54044987 597.79701995 -522.40412725 571.2064116 -525.1875 543.1875 C-525.27257812 542.34815918 -525.35765625 541.50881836 -525.4453125 540.64404297 C-527.4747158 518.71748591 -524.87577135 496.61009904 -517.875 475.75 C-517.56594727 474.82566162 -517.25689453 473.90132324 -516.93847656 472.94897461 C-514.81947171 466.73963163 -512.4076037 460.91347388 -509.1875 455.1875 C-508.73375 454.1975 -508.28 453.2075 -507.8125 452.1875 C-505.86830347 448.5982141 -503.57935966 445.35519281 -501.19921875 442.04296875 C-500.06884832 440.43850121 -498.95453382 438.82138503 -497.90087891 437.16552734 C-494.18052475 431.3541253 -489.96537592 426.40397629 -485.1875 421.4375 C-484.15882813 420.34501953 -484.15882813 420.34501953 -483.109375 419.23046875 C-480.21890054 416.19105763 -477.3699822 413.33739609 -474.125 410.671875 C-471.78902482 408.69623642 -470.012246 406.90125317 -468.0582428 404.59266663 C-464.0146515 399.92358723 -459.69823333 395.5722064 -455.31811523 391.22045898 C-454.02893692 389.93347107 -454.02893692 389.93347107 -452.7137146 388.6204834 C-450.3787607 386.29029761 -448.04163026 383.96232123 -445.70364261 381.63518023 C-443.24464814 379.18624474 -440.78895623 376.73400257 -438.33302307 374.28199768 C-432.09999061 368.06001294 -425.86272149 361.8422833 -419.625 355.625 C-412.88495715 348.9070323 -406.14567345 342.18831306 -399.41127163 335.46468979 C-396.97251418 333.03007768 -394.53269761 330.59654707 -392.09036064 328.16552544 C-389.3671516 325.45431363 -386.64702099 322.74004713 -383.92749023 320.02514648 C-382.7280201 318.83342583 -382.7280201 318.83342583 -381.50431824 317.61763 C-377.62768075 313.74135837 -373.89755899 309.82112704 -370.39682102 305.60031223 C-368.82920856 303.76891923 -367.10414805 302.2241301 -365.25 300.6875 C-359.25002549 295.56584876 -353.95686757 289.99242335 -348.8046875 284.02734375 C-346.70217399 281.63535374 -344.46736468 279.41036806 -342.1875 277.1875 C-338.02391211 273.12234208 -334.09328977 269.01526532 -330.44921875 264.47265625 C-330.03285156 264.04855469 -329.61648438 263.62445313 -329.1875 263.1875 C-328.5275 263.1875 -327.8675 263.1875 -327.1875 263.1875 C-326.8575 262.1975 -326.5275 261.2075 -326.1875 260.1875 C-324.48046875 258.5390625 -324.48046875 258.5390625 -322.375 256.8125 C-319.22923194 254.14811282 -316.69481071 251.47294162 -314.1875 248.1875 C-311.5625 245.375 -311.5625 245.375 -309.1875 243.1875 C-308.5275 243.1875 -307.8675 243.1875 -307.1875 243.1875 C-306.5275 241.8675 -305.8675 240.5475 -305.1875 239.1875 C-304.5275 239.1875 -303.8675 239.1875 -303.1875 239.1875 C-302.8575 238.1975 -302.5275 237.2075 -302.1875 236.1875 C-300.62109375 234.6796875 -300.62109375 234.6796875 -298.625 233.0625 C-294.69910604 229.74167213 -291.35899022 226.1277183 -287.9921875 222.25 C-285.82974067 219.7786322 -283.5391366 217.47883822 -281.1875 215.1875 C-280.64351562 214.63320312 -280.09953125 214.07890625 -279.5390625 213.5078125 C-276.80761642 210.72865557 -274.08113461 208.03017559 -271.0625 205.5625 C-267.29645523 202.45141953 -264.00132864 199.2338511 -261 195.375 C-258.75611959 192.60190251 -256.21155064 190.593105 -253.375 188.4375 C-248.88625844 184.95657043 -245.66729202 181.20117738 -242.25 176.6953125 C-239.37421012 173.19861344 -236.04603656 170.36932757 -232.6328125 167.41015625 C-229.5299792 164.5898493 -226.86354692 161.49139077 -224.12890625 158.3203125 C-221.61193204 155.5551859 -218.86304427 153.16516478 -216.0078125 150.7578125 C-214.36785584 149.34308594 -212.86894676 147.87801307 -211.375 146.3125 C-209.1875 144.1875 -209.1875 144.1875 -206.1875 143.1875 C-205.91679687 142.630625 -205.64609375 142.07375 -205.3671875 141.5 C-203.65302513 138.13978766 -200.99154174 135.78302245 -198.3125 133.1875 C-197.78269531 132.66671875 -197.25289063 132.1459375 -196.70703125 131.609375 C-195.67541449 130.59567714 -194.64068599 129.58513415 -193.60253906 128.578125 C-192.35195515 127.34911776 -191.13778163 126.08329798 -189.9296875 124.8125 C-188.1875 123.1875 -188.1875 123.1875 -186.1875 123.1875 C-185.8575 122.1975 -185.5275 121.2075 -185.1875 120.1875 C-183.515625 118.5390625 -183.515625 118.5390625 -181.4375 116.8125 C-176.24205072 112.39221544 -171.6791722 107.68880809 -167.32421875 102.4453125 C-165.51697065 100.53564266 -163.70486397 98.89208519 -161.70703125 97.19335938 C-156.4811146 92.64291886 -151.62254251 87.7473829 -146.73828125 82.8359375 C-145.75300334 81.84878841 -144.7674999 80.86186438 -143.78178406 79.87515259 C-141.20873568 77.29832076 -138.63870267 74.71850262 -136.06933594 72.13800049 C-133.4588543 69.51726455 -130.84552384 66.8993728 -128.23242188 64.28125 C-123.6337894 59.6730993 -119.03763221 55.06249485 -114.4433136 50.45004272 C-104.57875442 40.55605741 -94.84441718 31.87243058 -83.1875 24.1875 C-82.32898438 23.58164062 -81.47046875 22.97578125 -80.5859375 22.3515625 C-57.57057907 6.604212 -27.47629825 0.01422905 0 0 Z " fill="#980C3E" transform="translate(539.1875,13.8125)"/>
<path d="M0 0 C0.66 0.33 1.32 0.66 2 1 C1.09731974 1.76117361 0.19463949 2.52234721 -0.73539472 3.30658668 C-10.43506627 11.55669355 -19.54337784 20.2610776 -28.52655029 29.27931213 C-30.03011281 30.78128235 -31.53411287 32.28281466 -33.03850675 33.78395218 C-37.13067492 37.8697651 -41.21665826 41.96171262 -45.30156946 46.05477917 C-49.72313836 50.48297035 -54.15051749 54.90534609 -58.57714844 59.32847595 C-66.23315928 66.98004216 -73.88551233 74.63524619 -81.53517914 82.29315376 C-89.55343411 90.32004457 -97.57356181 98.34505608 -105.59622955 106.36753654 C-106.09662062 106.86791996 -106.59701168 107.36830338 -107.11256612 107.88384994 C-109.14402373 109.91526664 -111.17549369 111.94667098 -113.20698048 113.97805849 C-132.2277239 132.99789764 -151.24305129 152.02314281 -170.25563276 171.05114044 C-187.14498896 187.95414059 -204.03805543 204.85342338 -220.93457031 221.74926758 C-222.02109088 222.83574774 -223.10761142 223.92222792 -224.19413194 225.00870813 C-224.73129224 225.54584808 -225.26845255 226.08298803 -225.82189044 226.63640495 C-228.52592278 229.3403365 -231.22995002 232.04427316 -233.93397141 234.74821568 C-234.46744708 235.28167464 -235.00092275 235.8151336 -235.55056435 236.36475798 C-249.68157511 250.49540378 -263.8101351 264.62849946 -277.93785977 278.76243061 C-278.44018156 279.26497267 -278.94250335 279.76751473 -279.46004701 280.28528534 C-281.47988965 282.30601618 -283.4997322 284.32674711 -285.51956175 286.34749103 C-292.54694523 293.3780344 -299.57515363 300.40775215 -306.60389609 307.43693686 C-315.65325868 316.48689599 -324.70086699 325.53860209 -333.74565825 334.59313048 C-338.10731444 338.9594115 -342.46976139 343.32489454 -346.83435822 347.68823624 C-350.82558583 351.67837168 -354.81451043 355.67079418 -358.8015689 359.66509544 C-360.24780375 361.11314868 -361.69488844 362.56035372 -363.14288554 364.00664479 C-365.10398484 365.96568839 -367.06201057 367.92775275 -369.01926804 369.89063358 C-369.87217448 370.74045705 -369.87217448 370.74045705 -370.74231136 371.60744867 C-373.38908375 374.26821968 -375.85362504 376.91602304 -378 380 C-378.66 379.67 -379.32 379.34 -380 379 C-371.02677651 368.88830765 -361.48661013 359.36772972 -351.90831566 349.83315086 C-349.05113306 346.98887858 -346.19714267 344.14143858 -343.34407043 341.29304504 C-337.29487855 335.25485436 -331.24141288 329.22095682 -325.1875 323.1875 C-318.6305241 316.65263398 -312.07434212 310.1169817 -305.52302438 303.57644254 C-302.23889367 300.29805137 -298.95087821 297.02358727 -295.66215515 293.74980164 C-293.93892851 292.03020834 -292.21584258 290.31047403 -290.49291992 288.59057617 C-289.71825882 287.82108139 -288.94359772 287.05158661 -288.14546204 286.2587738 C-284.32883878 282.44252197 -280.66617636 278.57546371 -277.21800709 274.4214983 C-275.64672421 272.58770278 -273.91994864 271.03936547 -272.0625 269.5 C-266.06252549 264.37834876 -260.76936757 258.80492335 -255.6171875 252.83984375 C-253.51467399 250.44785374 -251.27986468 248.22286806 -249 246 C-244.83641211 241.93484208 -240.90578977 237.82776532 -237.26171875 233.28515625 C-236.84535156 232.86105469 -236.42898437 232.43695313 -236 232 C-235.34 232 -234.68 232 -234 232 C-233.67 231.01 -233.34 230.02 -233 229 C-231.29296875 227.3515625 -231.29296875 227.3515625 -229.1875 225.625 C-226.04173194 222.96061282 -223.50731071 220.28544162 -221 217 C-218.375 214.1875 -218.375 214.1875 -216 212 C-215.34 212 -214.68 212 -214 212 C-213.34 210.68 -212.68 209.36 -212 208 C-211.34 208 -210.68 208 -210 208 C-209.67 207.01 -209.34 206.02 -209 205 C-207.43359375 203.4921875 -207.43359375 203.4921875 -205.4375 201.875 C-201.51160604 198.55417213 -198.17149022 194.9402183 -194.8046875 191.0625 C-192.64224067 188.5911322 -190.3516366 186.29133822 -188 184 C-187.45601562 183.44570312 -186.91203125 182.89140625 -186.3515625 182.3203125 C-183.62011642 179.54115557 -180.89363461 176.84267559 -177.875 174.375 C-174.10895523 171.26391953 -170.81382864 168.0463511 -167.8125 164.1875 C-165.56861959 161.41440251 -163.02405064 159.405605 -160.1875 157.25 C-155.69875844 153.76907043 -152.47979202 150.01367738 -149.0625 145.5078125 C-146.18671012 142.01111344 -142.85853656 139.18182757 -139.4453125 136.22265625 C-136.3424792 133.4023493 -133.67604692 130.30389077 -130.94140625 127.1328125 C-128.42443204 124.3676859 -125.67554427 121.97766478 -122.8203125 119.5703125 C-121.18035584 118.15558594 -119.68144676 116.69051307 -118.1875 115.125 C-116 113 -116 113 -113 112 C-112.59394531 111.1646875 -112.59394531 111.1646875 -112.1796875 110.3125 C-110.46552513 106.95228766 -107.80404174 104.59552245 -105.125 102 C-104.59519531 101.47921875 -104.06539063 100.9584375 -103.51953125 100.421875 C-102.48791449 99.40817714 -101.45318599 98.39763415 -100.41503906 97.390625 C-99.16445515 96.16161776 -97.95028163 94.89579798 -96.7421875 93.625 C-95 92 -95 92 -93 92 C-92.67 91.01 -92.34 90.02 -92 89 C-90.328125 87.3515625 -90.328125 87.3515625 -88.25 85.625 C-83.05455072 81.20471544 -78.4916722 76.50130809 -74.13671875 71.2578125 C-72.32947065 69.34814266 -70.51736397 67.70458519 -68.51953125 66.00585938 C-63.2936146 61.45541886 -58.43504251 56.5598829 -53.55078125 51.6484375 C-52.56550334 50.66128841 -51.5799999 49.67436438 -50.59428406 48.68765259 C-48.02123568 46.11082076 -45.45120267 43.53100262 -42.88183594 40.95050049 C-40.2713543 38.32976455 -37.65802384 35.7118728 -35.04492188 33.09375 C-30.4462894 28.4855993 -25.85013221 23.87499485 -21.2558136 19.26254272 C-20.13918587 18.14258408 -20.13918587 18.14258408 -19 17 C-18.13823654 16.13412262 -17.27647308 15.26824524 -16.38859558 14.37612915 C-13.77978952 11.78093884 -11.09589232 9.28978626 -8.375 6.8125 C-7.43398438 5.95269531 -6.49296875 5.09289063 -5.5234375 4.20703125 C-3 2 -3 2 0 0 Z " fill="#FDFBFC" transform="translate(446,45)"/>
<path d="M0 0 C3.54046654 3.4412641 6.71653771 7.00413236 9.84716511 10.83213329 C16.58354941 18.90944923 23.99810422 26.27017348 31.44535828 33.68586731 C32.98970396 35.23108679 34.53360938 36.77674638 36.07711631 38.32280368 C40.28917751 42.53930823 44.50740058 46.74959948 48.72671402 50.95884526 C53.2871208 55.51057616 57.84170609 60.06812591 62.39701843 64.62495422 C70.27987896 72.50920543 78.16668876 80.3894918 86.05591393 88.26737404 C94.32470651 96.52430858 102.59140609 104.78332948 110.85535622 113.0451107 C111.37032108 113.55993809 111.88528595 114.07476548 112.41585581 114.60519369 C115.03138337 117.22004453 117.64687395 119.83493236 120.2623503 122.44983443 C138.75935898 140.94264889 157.26099434 159.43082801 175.76538086 177.91625977 C193.73551122 195.86800394 211.70352667 213.82186066 229.66870117 231.77856445 C230.22304318 232.33264341 230.77738519 232.88672237 231.34852545 233.4575916 C236.91575336 239.02218234 242.4829385 244.58681587 248.05009231 250.15148075 C259.38973987 261.48605668 270.72967279 272.8203471 282.06977844 284.15446472 C282.59111013 284.67552183 283.11244182 285.19657894 283.64957144 285.73342566 C318.42826524 320.4937365 353.21363002 355.24737128 388 390 C385 390 385 390 382.62744141 387.96801758 C381.71140137 387.03626709 380.79536133 386.1045166 379.8515625 385.14453125 C379.35715668 384.64588058 378.86275085 384.14722992 378.35336304 383.63346863 C376.77007112 382.03337566 375.19748133 380.42321138 373.625 378.8125 C372.57361151 377.74605931 371.52153557 376.6802959 370.46875 375.61523438 C368.5186003 373.64061809 366.57349502 371.66148575 364.63134766 369.67895508 C362.1023154 367.10416653 359.5543815 364.54960844 357 362 C355.98473241 360.97489308 354.97025474 359.94900237 353.95703125 358.921875 C352.90887692 357.86456077 351.86069962 356.80726933 350.8125 355.75 C350.27947266 355.20859375 349.74644531 354.6671875 349.19726562 354.109375 C346.37492463 351.19242899 346.37492463 351.19242899 343 349 C343 348.34 343 347.68 343 347 C342.34 347 341.68 347 341 347 C341 346.34 341 345.68 341 345 C340.40977051 344.740979 339.81954102 344.48195801 339.21142578 344.21508789 C336.8355322 342.90963168 335.42927587 341.56319341 333.6171875 339.55859375 C333.00746094 338.89279297 332.39773438 338.22699219 331.76953125 337.54101562 C331.14433594 336.84685547 330.51914062 336.15269531 329.875 335.4375 C328.62494847 334.05887902 327.3724592 332.68246331 326.1171875 331.30859375 C325.56659668 330.69814209 325.01600586 330.08769043 324.44873047 329.45874023 C323.04386181 327.88880925 323.04386181 327.88880925 321 327 C321 326.34 321 325.68 321 325 C320.42894531 324.76796875 319.85789062 324.5359375 319.26953125 324.296875 C316.44268942 322.68153681 314.79830188 320.72447467 312.6875 318.25 C309.54843516 314.66765179 306.41957414 311.42425506 302.703125 308.44921875 C298.69482029 305.0384824 295.17791022 301.13426652 291.64868164 297.2421875 C287.00479666 292.12282703 282.36354321 287.37840262 277 283 C272.15789474 278.47368421 272.15789474 278.47368421 271 275 C270.34 275 269.68 275 269 275 C269 274.34 269 273.68 269 273 C268.34 273 267.68 273 267 273 C265.85646483 271.92576999 264.72364506 270.83833879 263.640625 269.703125 C262.34266247 268.35571627 261.01266644 267.03917204 259.671875 265.734375 C258.85203125 264.93515625 258.0321875 264.1359375 257.1875 263.3125 C256.39730469 262.54550781 255.60710937 261.77851562 254.79296875 260.98828125 C253 259 253 259 253 257 C252.34 257 251.68 257 251 257 C249.484375 255.42578125 249.484375 255.42578125 247.75 253.3125 C244.724038 249.74663606 241.63634666 246.92488753 238 244 C233.24711235 239.39564008 228.80710007 234.50102062 224.34765625 229.61523438 C220.92422505 225.90965225 217.3951479 222.54706202 213.52246094 219.31567383 C211.66593982 217.7113133 210.11009285 215.96382836 208.5625 214.0625 C206.20301643 211.28073749 203.78483711 208.85557513 201 206.5 C197.55844166 203.58432775 194.62912325 200.44972062 191.73828125 196.9921875 C188.01293023 192.72268409 183.85125101 188.91649666 179.68310547 185.08959961 C173.06316843 179.00390604 166.91529798 172.77523117 161 166 C159.3540349 164.31288577 157.68762851 162.6454378 156 161 C154.49862069 159.50138058 152.99876696 158.00123203 151.5 156.5 C150.7678125 155.7678125 150.035625 155.035625 149.28125 154.28125 C143.57291667 148.57291667 137.86458333 142.86458333 132.15625 137.15625 C131.62209473 136.62281982 131.08793945 136.08938965 130.53759766 135.53979492 C129.1214006 134.12157408 127.71268447 132.6958934 126.3046875 131.26953125 C124.46581672 129.45871104 122.62896209 127.80533281 120.625 126.1875 C117.25541189 123.35265087 114.4823661 120.18484162 111.64453125 116.828125 C109.63980047 114.59958817 107.34937525 112.85102293 105 111 C105 110.34 105 109.68 105 109 C104.40316406 108.74089844 103.80632812 108.48179687 103.19140625 108.21484375 C100.8208773 106.90070025 99.638702 105.65528302 97.9375 103.5625 C93.28058336 98.05064186 88.1318287 93.06370708 83 88 C82.15824219 87.14792969 81.31648438 86.29585937 80.44921875 85.41796875 C78.18127544 83.17896251 75.84987497 81.08093562 73.4375 79 C70.25228849 76.19385498 67.56714288 73.39229594 65 70 C63.34600706 68.32075526 61.67756352 66.6556981 60 65 C53 58 46 51 39 44 C38.13745605 43.13818115 37.27491211 42.2763623 36.38623047 41.38842773 C34.55665718 39.55716975 32.7322098 37.72147273 30.9140625 35.87890625 C24.32758689 29.11080281 24.32758689 29.11080281 17.25 22.875 C10.39895122 17.23396232 4.86751409 9.37977943 0 2 C0 1.34 0 0.68 0 0 Z " fill="#FDFBFC" transform="translate(42,628)"/>
<path d="M0 0 C0.66 0.33 1.32 0.66 2 1 C-119.44 122.44 -240.88 243.88 -366 369 C-366 365.21774017 -364.62652692 364.26643941 -362.0634073 361.67038187 C-361.47621687 361.09107248 -360.88902644 360.51176309 -360.28404236 359.91489887 C-359.35712521 358.98278942 -359.35712521 358.98278942 -358.41148245 358.03184947 C-356.31648682 355.92884472 -354.21086351 353.83680538 -352.10522461 351.74446106 C-350.59490613 350.23283568 -349.08524649 348.72055178 -347.57619381 347.20766276 C-343.40995515 343.03468439 -339.23436629 338.87117078 -335.05726576 334.70906889 C-330.56102208 330.22573124 -326.07340051 325.73377841 -321.58474731 321.24284363 C-313.800828 313.45734813 -306.01146921 305.67733029 -298.21829224 297.90110207 C-290.04254782 289.74309299 -281.86989891 281.5820034 -273.7013855 273.41675377 C-272.94028112 272.65595872 -272.94028112 272.65595872 -272.16380089 271.87979406 C-269.58710041 269.30410855 -267.01045533 266.72836763 -264.43383157 264.15260538 C-246.17119102 245.89627041 -227.90160096 227.64690454 -209.62792969 209.40161133 C-191.87246021 191.67368343 -174.12013591 173.94261571 -156.37207031 156.20727539 C-155.82524585 155.66084551 -155.27842138 155.11441562 -154.71502648 154.55142725 C-149.22372382 149.06408007 -143.73248515 143.57666885 -138.24129337 138.08921072 C-127.0545436 126.91007012 -115.86736672 115.73135699 -104.67993164 104.55290222 C-104.16552269 104.03890515 -103.65111375 103.52490807 -103.12111665 102.99533532 C-68.75456345 68.6563962 -34.37802341 34.32745545 0 0 Z M-373 371 C-370.875 371.375 -370.875 371.375 -369 372 C-371.03849601 374.06571628 -373.0806475 376.12759264 -375.125 378.1875 C-375.69476563 378.76564453 -376.26453125 379.34378906 -376.8515625 379.93945312 C-379.5245498 382.62762785 -382.18716678 385.20237509 -385.15625 387.5625 C-388.10650966 390.09129399 -390.15437309 392.63470631 -392.375 395.8125 C-393.06335938 396.78832031 -393.75171875 397.76414062 -394.4609375 398.76953125 C-394.96882813 399.50558594 -395.47671875 400.24164063 -396 401 C-396.33 400.34 -396.66 399.68 -397 399 C-392.87836995 392.33039952 -388.1977256 386.68483219 -382.75 381.0625 C-382.03070313 380.30904297 -381.31140625 379.55558594 -380.5703125 378.77929688 C-378.06901869 376.16324333 -375.5593408 373.5593408 -373 371 Z " fill="#8B2545" transform="translate(437,54)"/>
<path d="M0 0 C0 3.42191056 -0.72114282 4.6400333 -2.37890625 7.5859375 C-2.88494385 8.50632812 -3.39098145 9.42671875 -3.91235352 10.375 C-4.45690186 11.365 -5.0014502 12.355 -5.5625 13.375 C-13.82557565 28.8146401 -19.27727176 44.70020366 -22 62 C-22.25692627 63.62989868 -22.25692627 63.62989868 -22.51904297 65.29272461 C-27.28739601 102.04777076 -18.24821695 140.62393166 3 171 C2.67 171.66 2.34 172.32 2 173 C-3.22680808 165.99568928 -7.38736028 158.83003839 -11.125 150.9375 C-11.64634521 149.83841309 -12.16769043 148.73932617 -12.70483398 147.60693359 C-28.9928043 112.51527809 -29.94217992 71.07759583 -17.6875 34.5625 C-17.37844727 33.63816162 -17.06939453 32.71382324 -16.75097656 31.76147461 C-14.63190309 25.55193057 -12.21898411 19.72665713 -9 14 C-8.525625 12.96875 -8.05125 11.9375 -7.5625 10.875 C-5.42798754 6.94749708 -2.753767 3.51127572 0 0 Z " fill="#F5EDF0" transform="translate(39,455)"/>
<path d="M0 0 C1.5778125 1.175625 1.5778125 1.175625 3.1875 2.375 C3.92355469 2.92285156 4.65960938 3.47070312 5.41796875 4.03515625 C7.25411609 5.43240604 9.06707567 6.86035705 10.86328125 8.30859375 C21.96278026 17.22027855 34.17911192 23.86693094 47 30 C43.30730746 31.23089751 42.02527494 30.32164346 38.6574707 28.65087891 C37.96613037 28.29171387 37.27479004 27.93254883 36.5625 27.5625 C35.84602295 27.19560059 35.1295459 26.82870117 34.39135742 26.45068359 C21.8243988 19.89169303 8.84782292 11.32127594 -1 1 C-0.67 0.67 -0.34 0.34 0 0 Z " fill="#F8EDF1" transform="translate(434,1023)"/>
<path d="M0 0 C0.66 0.33 1.32 0.66 2 1 C1.25556641 1.72703125 1.25556641 1.72703125 0.49609375 2.46875 C-8.19053824 11.03999979 -15.64438556 20.29118094 -23 30 C-23.33 29.34 -23.66 28.68 -24 28 C-19.87836995 21.33039952 -15.1977256 15.68483219 -9.75 10.0625 C-9.03070313 9.30904297 -8.31140625 8.55558594 -7.5703125 7.77929688 C-5.06901869 5.16324333 -2.5593408 2.5593408 0 0 Z " fill="#F8F3F4" transform="translate(64,425)"/>
<path d="M0 0 C0 6.27776643 -6.16400649 11.28151362 -10.375 15.5 C-11.57835226 16.6718037 -12.78488522 17.84039808 -14 19 C-14 16 -14 16 -12.71484375 14.4921875 C-11.83505859 13.69167969 -11.83505859 13.69167969 -10.9375 12.875 C-6.80335526 8.93490695 -3.40890883 4.56938843 0 0 Z " fill="#F7E5EC" transform="translate(1036,629)"/>
<path d="" fill="#FFFFFF" transform="translate(0,0)"/>
<path d="" fill="#FFFFFF" transform="translate(0,0)"/>
</svg>
