<svg xmlns="http://www.w3.org/2000/svg" xmlns:xlink="http://www.w3.org/1999/xlink" preserveAspectRatio="xMidYMid meet" version="1.0" viewBox="0.0 -3.1 488.5 464.2" zoomAndPan="magnify" style="fill: #700021;" original_string_length="1754" width="489px" height="464px"><g id="__id5_syjen9abs8"><path d="M485.440918,217.4516754l-37.1679688,194.3686371c-5.453125,28.5185547-30.4853516,49.2167969-59.5195312,49.2167969 H182.5239258c-10.3447876,0-20.2749023-2.6702271-29.0145874-7.6758423 c-5.8966675-3.3773193-9.515686-9.6754761-9.515686-16.4708862V199.1891632c0-7.2915039,4.1589966-13.9716797,10.7440186-17.1027222 c6.3883057-3.0375366,12.4779663-6.5971069,18.2403564-10.6733398c8.8525391-6.2617188,25.3300781-17.9169922,35.2900391-38.8720703 c3.6010742-7.5756836,7.2397461-19.3066406,8.7099609-71.1113281c0.4921875-17.3413086,0.6079102-34.824707,0.3442383-51.9638672 c-0.0566406-3.6782231,2.5629883-6.8544927,6.1845703-7.4990239c0.109375-0.0205078,0.2817383-0.0576172,0.5029297-0.1044922 c14.8139648-3.1118164,42.9174805-5.0083008,64.6655273,17.2504883c19.0742188,19.5214825,20.75,46.7236328,20.8925781,51.9785156 c0.0019531,0.0678711,0.0029297,0.1352539,0.0029297,0.203125v81.3774414h122.3037109 c16.3134766,0,31.6328125,7.2104492,42.0292969,19.7827148C484.2993164,185.027359,488.5053711,201.4277496,485.440918,217.4516754z M92.3303223,178.2277374c-1.149231-0.1414795-2.3140259-0.2203979-3.493042-0.2203979H29.6918335 C13.3198242,178.0073395,0,191.9555817,0,209.1006012v207.4384613c0,16.3218994,12.0735474,29.7365723,27.3573608,30.9885864 c1.149231,0.1414795,2.3140259,0.2203979,3.493042,0.2203979h59.1453857c16.3720093,0,29.6918335-13.9482422,29.6918335-31.0932617 V209.2163239C119.6876221,192.8944244,107.6141357,179.4798126,92.3303223,178.2277374z" style="fill: inherit;"/></g></svg>